# This file uses centimeters as units for non-parametric coordinates.

mtllib cola.mtl
g default
v 1.338053 0.091489 3.407220
v 1.325717 0.091489 3.383008
v 1.306502 0.091489 3.363794
v 1.282291 0.091489 3.351457
v 1.255452 0.091489 3.347207
v 1.228613 0.091489 3.351457
v 1.204402 0.091489 3.363794
v 1.185187 0.091489 3.383008
v 1.172851 0.091489 3.407220
v 1.168600 0.091489 3.434058
v 1.172851 0.091489 3.460897
v 1.185187 0.091489 3.485108
v 1.204402 0.091489 3.504323
v 1.228613 0.091489 3.516659
v 1.255452 0.091489 3.520910
v 1.282291 0.091489 3.516659
v 1.306502 0.091489 3.504323
v 1.325717 0.091489 3.485108
v 1.338053 0.091489 3.460897
v 1.342304 0.091489 3.434058
v 1.338053 0.362209 3.407220
v 1.325717 0.362209 3.383008
v 1.306502 0.362209 3.363794
v 1.282291 0.362209 3.351457
v 1.255452 0.362209 3.347207
v 1.228613 0.362209 3.351457
v 1.204402 0.362209 3.363794
v 1.185187 0.362209 3.383008
v 1.172851 0.362209 3.407220
v 1.168600 0.362209 3.434058
v 1.172851 0.362209 3.460897
v 1.185187 0.362209 3.485108
v 1.204402 0.362209 3.504323
v 1.228613 0.362209 3.516659
v 1.255452 0.362209 3.520910
v 1.282291 0.362209 3.516659
v 1.306502 0.362209 3.504323
v 1.325717 0.362209 3.485108
v 1.338053 0.362209 3.460897
v 1.342304 0.362209 3.434058
v 1.255452 0.091489 3.434058
v 1.349400 0.088638 3.411472
v 1.337822 0.088638 3.383546
v 1.337822 0.359359 3.383546
v 1.349400 0.359359 3.411472
v 1.318182 0.088638 3.360564
v 1.318182 0.359359 3.360564
v 1.292401 0.088638 3.344777
v 1.292401 0.359359 3.344777
v 1.263003 0.088638 3.337729
v 1.263003 0.359359 3.337729
v 1.232865 0.088638 3.340110
v 1.232865 0.359359 3.340110
v 1.204939 0.088638 3.351688
v 1.204939 0.359359 3.351688
v 1.181958 0.088638 3.371329
v 1.181958 0.359359 3.371329
v 1.166170 0.088638 3.397110
v 1.166170 0.359359 3.397110
v 1.160318 0.091489 3.434058
v 1.160318 0.362209 3.434058
v 1.166170 0.094339 3.471007
v 1.166170 0.365060 3.471007
v 1.181958 0.094339 3.496788
v 1.181958 0.365060 3.496788
v 1.204939 0.094339 3.516429
v 1.204939 0.365060 3.516429
v 1.232865 0.094339 3.528007
v 1.232865 0.365060 3.528007
v 1.263002 0.094339 3.530388
v 1.263002 0.365060 3.530388
v 1.292400 0.094339 3.523340
v 1.292400 0.365060 3.523340
v 1.318182 0.094339 3.507553
v 1.318182 0.365060 3.507553
v 1.337822 0.094339 3.484571
v 1.337822 0.365060 3.484571
v 1.349400 0.094339 3.456645
v 1.349400 0.365060 3.456645
v 1.352977 0.091489 3.434058
v 1.352977 0.362209 3.434058
vt 0.722202 0.423791
vt 0.759409 0.423791
vt 0.759409 0.690725
vt 0.722202 0.690725
vt 0.680959 0.423791
vt 0.680959 0.690725
vt 0.639715 0.423791
vt 0.639715 0.690725
vt 0.602509 0.423791
vt 0.602509 0.690725
vt 0.221205 0.423791
vt 0.250733 0.423791
vt 0.250733 0.690725
vt 0.221205 0.690725
vt 0.287939 0.423791
vt 0.287939 0.690725
vt 0.329182 0.423791
vt 0.329182 0.690725
vt 0.370426 0.423791
vt 0.370426 0.690725
vt 0.407632 0.423791
vt 0.407632 0.690725
vt 0.315019 0.209126
vt 0.333977 0.246332
vt 0.207042 0.287576
vt 0.340509 0.287576
vt 0.285492 0.179599
vt 0.333977 0.328819
vt 0.248286 0.160641
vt 0.315019 0.366026
vt 0.207042 0.154109
vt 0.285492 0.395553
vt 0.165799 0.160641
vt 0.248286 0.414510
vt 0.128592 0.179599
vt 0.207042 0.421043
vt 0.099065 0.209126
vt 0.165799 0.414510
vt 0.080108 0.246332
vt 0.128592 0.395553
vt 0.073575 0.287576
vt 0.099065 0.366026
vt 0.080108 0.328819
vt 0.598284 0.690725
vt 0.568757 0.690725
vt 0.568757 0.423791
vt 0.598284 0.423791
vt 0.531550 0.690725
vt 0.531550 0.423791
vt 0.490307 0.690725
vt 0.490307 0.423791
vt 0.449063 0.690725
vt 0.449063 0.423791
vt 0.411857 0.690725
vt 0.411857 0.423791
vt 0.073575 0.693474
vt 0.103102 0.693474
vt 0.103102 0.960407
vt 0.073575 0.960407
vt 0.140309 0.693474
vt 0.140309 0.960407
vt 0.181552 0.693474
vt 0.181552 0.960407
vt 0.222796 0.693474
vt 0.222796 0.960407
vt 0.260002 0.693474
vt 0.260002 0.960407
vt 0.289529 0.693474
vt 0.289529 0.960407
vt 0.722202 0.423791
vt 0.759409 0.423791
vt 0.759409 0.690725
vt 0.722202 0.690725
vt 0.598284 0.690725
vt 0.568757 0.690725
vt 0.568757 0.423791
vt 0.598284 0.423791
vt 0.531550 0.690725
vt 0.531550 0.423791
vt 0.490307 0.690725
vt 0.490307 0.423791
vt 0.449063 0.690725
vt 0.449063 0.423791
vt 0.411857 0.690725
vt 0.411857 0.423791
vt 0.221205 0.423791
vt 0.250733 0.423791
vt 0.250733 0.690725
vt 0.221205 0.690725
vt 0.287939 0.423791
vt 0.287939 0.690725
vt 0.329182 0.423791
vt 0.329182 0.690725
vt 0.370426 0.423791
vt 0.370426 0.690725
vt 0.407632 0.423791
vt 0.407632 0.690725
vt 0.073575 0.693474
vt 0.103102 0.693474
vt 0.103102 0.960407
vt 0.073575 0.960407
vt 0.140309 0.693474
vt 0.140309 0.960407
vt 0.181552 0.693474
vt 0.181552 0.960407
vt 0.222796 0.693474
vt 0.222796 0.960407
vt 0.260002 0.693474
vt 0.260002 0.960407
vt 0.289529 0.693474
vt 0.289529 0.960407
vt 0.602509 0.423791
vt 0.639715 0.423791
vt 0.639715 0.690725
vt 0.602509 0.690725
vt 0.680959 0.423791
vt 0.680959 0.690725
vn 0.956949 0.000000 -0.290257
vn 0.852473 0.000000 -0.522771
vn 0.852473 0.000000 -0.522771
vn 0.958647 0.000000 -0.284599
vn 0.649206 0.000000 -0.760613
vn 0.649206 0.000000 -0.760613
vn 0.382395 0.000000 -0.923999
vn 0.382395 0.000000 -0.923999
vn 0.078143 0.000000 -0.996942
vn 0.078143 0.000000 -0.996942
vn -0.233759 0.000000 -0.972295
vn -0.233759 0.000000 -0.972295
vn -0.522772 0.000000 -0.852473
vn -0.522772 0.000000 -0.852473
vn -0.760609 0.000000 -0.649211
vn -0.760609 0.000000 -0.649211
vn -0.944314 0.000000 -0.329045
vn -0.946307 0.000000 -0.323269
vn -0.999988 0.000000 -0.004925
vn -0.999988 0.000000 0.004925
vn -0.946307 0.000000 0.323269
vn -0.944314 0.000000 0.329045
vn -0.760611 0.000000 0.649208
vn -0.760611 0.000000 0.649208
vn -0.522772 0.000000 0.852473
vn -0.522772 0.000000 0.852473
vn -0.233749 0.000000 0.972297
vn -0.233749 0.000000 0.972297
vn 0.078144 0.000000 0.996942
vn 0.078144 0.000000 0.996942
vn 0.382385 0.000000 0.924003
vn 0.382385 0.000000 0.924003
vn 0.649206 0.000000 0.760613
vn 0.649206 0.000000 0.760613
vn 0.852475 0.000000 0.522769
vn 0.852475 0.000000 0.522769
vn 0.958646 0.000000 0.284601
vn 0.956948 0.000000 0.290258
vn 0.999968 0.000000 -0.008045
vn 0.999968 0.000000 0.008048
vn -0.052227 -0.997852 0.039536
vn -0.051384 -0.998379 0.024500
vn 0.000000 -1.000000 0.000000
vn -0.037454 -0.997852 0.053740
vn -0.019014 -0.997852 0.062684
vn 0.001287 -0.997852 0.065491
vn 0.021462 -0.997852 0.061888
vn 0.039536 -0.997852 0.052227
vn 0.053739 -0.997852 0.037454
vn 0.039528 -0.999015 0.020170
vn 0.000000 -0.999892 0.014666
vn -0.039528 -0.999015 0.020170
vn -0.053739 -0.997852 0.037454
vn -0.039536 -0.997852 0.052227
vn -0.021462 -0.997852 0.061888
vn -0.001287 -0.997852 0.065491
vn 0.019014 -0.997852 0.062684
vn 0.037454 -0.997852 0.053740
vn 0.052227 -0.997852 0.039535
vn 0.051384 -0.998378 0.024500
vn 0.000000 -0.999847 0.017469
vn -0.243056 -0.959902 0.139686
vn -0.177900 -0.979801 0.091329
vn 0.223454 0.959924 -0.169155
vn 0.224298 0.968634 -0.106947
vn 0.177899 0.979802 -0.091329
vn 0.243054 0.959902 -0.139685
vn -0.187997 -0.959901 0.207959
vn 0.160248 0.959924 -0.229928
vn 0.187996 0.959902 -0.207958
vn -0.114534 -0.959901 0.255875
vn 0.081352 0.959924 -0.268193
vn 0.114533 0.959902 -0.255873
vn -0.029857 -0.959902 0.278743
vn -0.005506 0.959924 -0.280205
vn 0.029857 0.959902 -0.278741
vn 0.057741 -0.959901 0.274328
vn -0.091827 0.959923 -0.264793
vn -0.057740 0.959902 -0.274327
vn 0.139689 -0.959900 0.243061
vn -0.169158 0.959923 -0.223458
vn -0.139689 0.959900 -0.243060
vn 0.207960 -0.959901 0.187997
vn -0.229927 0.959924 -0.160247
vn -0.207959 0.959901 -0.187997
vn 0.220472 -0.967918 0.120527
vn -0.176929 0.980074 -0.090280
vn -0.220471 0.967918 -0.120526
vn 0.000000 -0.997722 0.067465
vn 0.000000 0.997722 -0.067465
vn 0.000000 0.997722 -0.067465
vn -0.220472 -0.967918 0.120527
vn 0.176929 0.980074 -0.090281
vn 0.220471 0.967918 -0.120527
vn -0.207958 -0.959902 0.187996
vn 0.229926 0.959925 -0.160246
vn 0.207957 0.959902 -0.187994
vn -0.139686 -0.959902 0.243057
vn 0.169156 0.959924 -0.223454
vn 0.139686 0.959902 -0.243056
vn -0.057740 -0.959901 0.274328
vn 0.091824 0.959924 -0.264790
vn 0.057740 0.959902 -0.274327
vn 0.029857 -0.959900 0.278748
vn 0.005505 0.959923 -0.280209
vn -0.029857 0.959900 -0.278747
vn 0.114533 -0.959901 0.255875
vn -0.081352 0.959923 -0.268198
vn -0.114532 0.959901 -0.255875
vn 0.187995 -0.959902 0.207957
vn -0.160246 0.959924 -0.229927
vn -0.187994 0.959903 -0.207955
vn 0.243055 -0.959902 0.139686
vn -0.223453 0.959925 -0.169153
vn -0.243054 0.959903 -0.139684
vn 0.177900 -0.979801 0.091330
vn -0.224298 0.968634 -0.106947
vn -0.177899 0.979802 -0.091329
vn -0.000000 -0.996765 0.080375
vn -0.000000 0.996765 -0.080374
vn 0.000000 0.996765 -0.080374
s 1
g pCylinder1
usemtl phong3SG
f 42/70/1 43/71/2 44/72/3 45/73/4
f 43/74/2 46/75/5 47/76/6 44/77/3
f 46/75/5 48/78/7 49/79/8 47/76/6
f 48/78/7 50/80/9 51/81/10 49/79/8
f 50/80/9 52/82/11 53/83/12 51/81/10
f 52/82/11 54/84/13 55/85/14 53/83/12
f 54/86/13 56/87/15 57/88/16 55/89/14
f 56/87/15 58/90/17 59/91/18 57/88/16
f 58/90/17 60/92/19 61/93/20 59/91/18
f 60/92/19 62/94/21 63/95/22 61/93/20
f 62/94/21 64/96/23 65/97/24 63/95/22
f 64/98/23 66/99/25 67/100/26 65/101/24
f 66/99/25 68/102/27 69/103/28 67/100/26
f 68/102/27 70/104/29 71/105/30 69/103/28
f 70/104/29 72/106/31 73/107/32 71/105/30
f 72/106/31 74/108/33 75/109/34 73/107/32
f 74/108/33 76/110/35 77/111/36 75/109/34
f 76/112/35 78/113/37 79/114/38 77/115/36
f 78/113/37 80/116/39 81/117/40 79/114/38
f 80/116/39 42/70/1 45/73/4 81/117/40
s 2
f 2/23/41 1/24/42 41/25/43
f 3/27/44 2/23/41 41/25/43
f 4/29/45 3/27/44 41/25/43
f 5/31/46 4/29/45 41/25/43
f 6/33/47 5/31/46 41/25/43
f 7/35/48 6/33/47 41/25/43
f 8/37/49 7/35/48 41/25/43
f 9/39/50 8/37/49 41/25/43
f 10/41/51 9/39/50 41/25/43
f 11/43/52 10/41/51 41/25/43
f 12/42/53 11/43/52 41/25/43
f 13/40/54 12/42/53 41/25/43
f 14/38/55 13/40/54 41/25/43
f 15/36/56 14/38/55 41/25/43
f 16/34/57 15/36/56 41/25/43
f 17/32/58 16/34/57 41/25/43
f 18/30/59 17/32/58 41/25/43
f 19/28/60 18/30/59 41/25/43
f 20/26/61 19/28/60 41/25/43
f 1/24/42 20/26/61 41/25/43
f 1/1/42 2/2/41 43/71/62 42/70/63
s 3
f 22/3/64 21/4/65 45/73/66 44/72/67
s 2
f 2/44/41 3/45/44 46/75/68 43/74/62
s 3
f 23/46/69 22/47/64 44/77/67 47/76/70
s 2
f 3/45/44 4/48/45 48/78/71 46/75/68
s 3
f 24/49/72 23/46/69 47/76/70 49/79/73
s 2
f 4/48/45 5/50/46 50/80/74 48/78/71
s 3
f 25/51/75 24/49/72 49/79/73 51/81/76
s 2
f 5/50/46 6/52/47 52/82/77 50/80/74
s 3
f 26/53/78 25/51/75 51/81/76 53/83/79
s 2
f 6/52/47 7/54/48 54/84/80 52/82/77
s 3
f 27/55/81 26/53/78 53/83/79 55/85/82
s 2
f 7/11/48 8/12/49 56/87/83 54/86/80
s 3
f 28/13/84 27/14/81 55/89/82 57/88/85
s 2
f 8/12/49 9/15/50 58/90/86 56/87/83
s 3
f 29/16/87 28/13/84 57/88/85 59/91/88
s 2
f 9/15/50 10/17/51 60/92/89 58/90/86
s 3
f 30/18/90 29/16/87 59/91/88 61/93/91
s 2
f 10/17/51 11/19/52 62/94/92 60/92/89
s 3
f 31/20/93 30/18/90 61/93/91 63/95/94
s 2
f 11/19/52 12/21/53 64/96/95 62/94/92
s 3
f 32/22/96 31/20/93 63/95/94 65/97/97
s 2
f 12/56/53 13/57/54 66/99/98 64/98/95
s 3
f 33/58/99 32/59/96 65/101/97 67/100/100
s 2
f 13/57/54 14/60/55 68/102/101 66/99/98
s 3
f 34/61/102 33/58/99 67/100/100 69/103/103
s 2
f 14/60/55 15/62/56 70/104/104 68/102/101
s 3
f 35/63/105 34/61/102 69/103/103 71/105/106
s 2
f 15/62/56 16/64/57 72/106/107 70/104/104
s 3
f 36/65/108 35/63/105 71/105/106 73/107/109
s 2
f 16/64/57 17/66/58 74/108/110 72/106/107
s 3
f 37/67/111 36/65/108 73/107/109 75/109/112
s 2
f 17/66/58 18/68/59 76/110/113 74/108/110
s 3
f 38/69/114 37/67/111 75/109/112 77/111/115
s 2
f 18/9/59 19/7/60 78/113/116 76/112/113
s 3
f 39/8/117 38/10/114 77/115/115 79/114/118
s 2
f 19/7/60 20/5/61 80/116/119 78/113/116
s 3
f 40/6/120 39/8/117 79/114/118 81/117/121
s 2
f 20/5/61 1/1/42 42/70/63 80/116/119
s 3
f 21/4/65 40/6/120 81/117/121 45/73/66
