# This file uses centimeters as units for non-parametric coordinates.

mtllib chouti2.mtl
g default
v 0.196812 -0.618341 3.657540
v 1.676839 -0.618341 3.657540
v 0.196812 -0.353757 3.657540
v 1.676839 -0.353757 3.657540
v 0.196812 -0.353757 2.803799
v 1.676839 -0.353757 2.803799
v 0.196812 -0.618341 2.803799
v 1.676839 -0.618341 2.803799
v 0.165097 -0.618341 3.689254
v 1.708553 -0.618341 3.689254
v 1.708553 -0.353757 3.689254
v 0.165097 -0.353757 3.689254
v 0.165097 -0.353757 2.772086
v 1.708553 -0.353757 2.772086
v 1.708553 -0.618341 2.772086
v 0.165097 -0.618341 2.772086
v 0.936825 -0.486049 2.772086
v 0.889769 -0.380388 2.760718
v 0.889596 -0.380388 2.753311
v 0.903845 -0.380388 2.730424
v 0.973291 -0.380388 2.726656
v 0.994391 -0.380388 2.730263
v 1.031360 -0.380388 2.738610
v 1.056903 -0.380388 2.758264
v 1.061771 -0.380388 2.769107
v 0.882830 -0.377537 2.759817
v 0.882783 -0.377537 2.751871
v 0.899624 -0.377537 2.726846
v 0.973813 -0.377537 2.722714
v 0.995991 -0.377537 2.726519
v 1.035628 -0.377537 2.735853
v 1.063512 -0.377537 2.757646
v 1.068653 -0.377537 2.769187
v 0.875925 -0.380470 2.758921
v 0.876004 -0.380470 2.750438
v 0.895422 -0.380470 2.723285
v 0.974332 -0.380470 2.718791
v 0.997582 -0.380470 2.722793
v 1.039876 -0.380470 2.733110
v 1.070089 -0.380470 2.757030
v 1.075501 -0.380470 2.769268
v 0.873098 -0.387468 2.758555
v 0.873229 -0.387468 2.749852
v 0.893703 -0.387468 2.721828
v 0.974545 -0.387468 2.717186
v 0.998234 -0.387468 2.721268
v 1.041615 -0.387468 2.731987
v 1.072781 -0.387468 2.756778
v 1.078305 -0.387468 2.769301
v 0.876007 -0.394433 2.758932
v 0.876084 -0.394433 2.750455
v 0.895473 -0.394433 2.723328
v 0.974326 -0.394433 2.718837
v 0.997563 -0.394433 2.722837
v 1.039826 -0.394433 2.733142
v 1.070011 -0.394433 2.757037
v 1.075420 -0.394433 2.769267
v 0.882946 -0.397282 2.759833
v 0.882897 -0.397282 2.751895
v 0.899694 -0.397282 2.726906
v 0.973804 -0.397282 2.722780
v 0.995964 -0.397282 2.726581
v 1.035557 -0.397282 2.735899
v 1.063402 -0.397282 2.757656
v 1.068539 -0.397282 2.769186
v 0.889851 -0.394350 2.760729
v 0.889677 -0.394350 2.753329
v 0.903895 -0.394350 2.730466
v 0.973285 -0.394350 2.726702
v 0.994373 -0.394350 2.730307
v 1.031310 -0.394350 2.738642
v 1.056825 -0.394350 2.758271
v 1.061690 -0.394350 2.769106
v 0.892677 -0.387352 2.761095
v 0.892452 -0.387352 2.753915
v 0.905615 -0.387352 2.731924
v 0.973073 -0.387352 2.728307
v 0.993721 -0.387352 2.731832
v 1.029571 -0.387352 2.739765
v 1.054133 -0.387352 2.758524
v 1.058887 -0.387352 2.769073
vt 0.222595 0.576345
vt 0.222595 0.153627
vt 0.295059 0.576345
vt 0.295059 0.153627
vt 0.299435 0.576345
vt 0.335667 0.364986
vt 0.371898 0.576345
vt 0.371898 0.153627
vt 0.384826 0.567659
vt 0.384826 0.162312
vt 0.618646 0.567659
vt 0.618646 0.162312
vt 0.837857 0.830293
vt 0.837857 0.579101
vt 0.910320 0.830293
vt 0.910320 0.579101
vt 0.761157 0.830293
vt 0.761157 0.579101
vt 0.833621 0.830293
vt 0.833621 0.579101
vt 0.627332 0.576345
vt 0.627332 0.153627
vt 0.640510 0.162312
vt 0.640510 0.567659
vt 0.631824 0.153627
vt 0.631824 0.576345
vt 0.874331 0.567659
vt 0.874331 0.162312
vt 0.883016 0.576345
vt 0.883016 0.153627
vt 0.376140 0.153627
vt 0.376140 0.576345
vt 0.299435 0.153627
vt 0.745438 0.629969
vt 0.747467 0.630016
vt 0.745685 0.631869
vt 0.747861 0.631882
vt 0.753735 0.626114
vt 0.754715 0.627270
vt 0.754767 0.607094
vt 0.755847 0.606951
vt 0.753779 0.601315
vt 0.754805 0.600877
vt 0.751493 0.591190
vt 0.752248 0.590021
vt 0.746110 0.584195
vt 0.746280 0.582385
vt 0.743141 0.582861
vt 0.743119 0.580977
vt 0.745930 0.633761
vt 0.748254 0.633739
vt 0.755690 0.628421
vt 0.756921 0.606809
vt 0.755825 0.600441
vt 0.752999 0.588858
vt 0.746448 0.580584
vt 0.743097 0.579101
vt 0.704693 0.579104
vt 0.704693 0.581427
vt 0.702776 0.579204
vt 0.702776 0.581588
vt 0.704693 0.588864
vt 0.702776 0.589263
vt 0.716989 0.606064
vt 0.718906 0.606006
vt 0.716989 0.627675
vt 0.718906 0.628147
vt 0.716989 0.599696
vt 0.718906 0.599518
vt 0.716989 0.588113
vt 0.718906 0.587637
vt 0.716989 0.579838
vt 0.718906 0.579101
vt 0.688504 0.582925
vt 0.685152 0.582925
vt 0.688573 0.581008
vt 0.685143 0.581008
vt 0.700869 0.581422
vt 0.700869 0.579101
vt 0.700869 0.588852
vt 0.720813 0.627662
vt 0.720813 0.606066
vt 0.720813 0.599702
vt 0.720813 0.588127
vt 0.720813 0.579860
vt 0.685152 0.579101
vt 0.688502 0.579101
vt 0.733709 0.633695
vt 0.734103 0.631829
vt 0.736030 0.633716
vt 0.736277 0.631816
vt 0.726279 0.628385
vt 0.727259 0.627228
vt 0.725049 0.606789
vt 0.726129 0.606931
vt 0.726145 0.600424
vt 0.727170 0.600862
vt 0.728967 0.588850
vt 0.729722 0.590019
vt 0.735511 0.580582
vt 0.735681 0.582393
vt 0.738861 0.579101
vt 0.738839 0.580986
vt 0.734496 0.629972
vt 0.736522 0.629924
vt 0.728234 0.626078
vt 0.727203 0.607074
vt 0.728191 0.601298
vt 0.730473 0.591182
vt 0.735849 0.584194
vt 0.738816 0.582861
vt 0.692809 0.585374
vt 0.694725 0.585535
vt 0.692809 0.587401
vt 0.694725 0.587501
vt 0.692809 0.579113
vt 0.694725 0.579512
vt 0.708929 0.621006
vt 0.708929 0.602002
vt 0.710846 0.620535
vt 0.710846 0.602060
vt 0.708929 0.596227
vt 0.710846 0.596405
vt 0.708929 0.586110
vt 0.710846 0.586587
vt 0.708929 0.579122
vt 0.710846 0.579860
vt 0.680906 0.579101
vt 0.680897 0.581017
vt 0.677939 0.579101
vt 0.678008 0.581017
vt 0.696633 0.587398
vt 0.696633 0.585369
vt 0.696633 0.579101
vt 0.712753 0.602000
vt 0.712753 0.621020
vt 0.712753 0.596222
vt 0.712753 0.586097
vt 0.712753 0.579101
vt 0.677937 0.582925
vt 0.680907 0.582925
vn 0.000000 0.000000 1.000000
vn 0.000000 0.000000 1.000000
vn 0.000000 0.000000 1.000000
vn 0.000000 0.000000 1.000000
vn 0.000000 0.000000 -1.000000
vn 0.000000 0.000000 -1.000000
vn 0.000000 0.000000 -1.000000
vn 0.000000 0.000000 -1.000000
vn 0.000000 -1.000000 -0.000000
vn 0.000000 -1.000000 -0.000000
vn 0.000000 -1.000000 0.000000
vn 0.000000 -1.000000 0.000000
vn 1.000000 0.000000 0.000000
vn 1.000000 0.000000 0.000000
vn 1.000000 0.000000 0.000000
vn 1.000000 0.000000 0.000000
vn -1.000000 0.000000 0.000000
vn -1.000000 0.000000 0.000000
vn -1.000000 0.000000 0.000000
vn -1.000000 0.000000 0.000000
vn 0.000000 -1.000000 0.000000
vn 0.000000 -1.000000 0.000000
vn 0.000000 1.000000 0.000000
vn 0.000000 1.000000 -0.000000
vn 0.000000 1.000000 0.000000
vn 0.000000 1.000000 -0.000000
vn 0.000000 1.000000 -0.000000
vn 0.000000 1.000000 -0.000000
vn 0.000000 1.000000 -0.000000
vn 0.000000 1.000000 0.000000
vn 0.000000 -1.000000 -0.000000
vn 0.000000 -1.000000 0.000000
vn 0.000000 0.000000 -1.000000
vn 0.724843 0.688654 -0.018945
vn 0.611725 0.741137 0.276601
vn 0.020189 0.999794 -0.001961
vn -0.094341 0.993849 -0.058001
vn 0.230547 0.634922 0.737375
vn -0.030291 0.970758 -0.238140
vn 0.001290 0.513908 0.857844
vn -0.003121 0.996026 -0.089014
vn -0.172543 0.501038 0.848051
vn 0.004703 0.999747 -0.021975
vn -0.333679 0.552879 0.763533
vn 0.018693 0.990405 -0.136926
vn -0.532313 0.656011 0.535064
vn 0.115584 0.980124 -0.161240
vn -0.627322 0.726259 0.281097
vn 0.119690 0.991412 -0.052701
vn -0.707002 0.707194 -0.004921
vn -0.688090 0.623894 -0.370525
vn -0.272352 0.483723 -0.831767
vn -0.003678 0.461989 -0.886878
vn 0.185208 0.485667 -0.854298
vn 0.372229 0.490510 -0.787938
vn 0.607294 0.522114 -0.598824
vn 0.731090 0.601037 -0.322896
vn -0.999911 -0.005908 -0.011949
vn -0.879923 -0.004880 -0.475091
vn -0.333484 -0.003606 -0.942749
vn -0.003848 -0.003154 -0.999988
vn 0.214309 -0.003334 -0.976760
vn 0.445056 -0.003480 -0.895496
vn 0.729326 -0.003911 -0.684156
vn 0.914922 -0.004700 -0.403603
vn -0.682059 -0.632417 -0.367212
vn -0.698448 -0.715645 -0.004767
vn -0.270268 -0.491391 -0.827944
vn -0.003680 -0.470318 -0.882489
vn 0.184091 -0.494438 -0.849495
vn 0.369610 -0.498725 -0.784003
vn 0.603284 -0.530101 -0.595853
vn 0.725241 -0.609445 -0.320315
vn -0.083154 -0.995159 -0.052376
vn 0.032271 -0.999477 -0.002096
vn -0.025193 -0.974704 -0.222074
vn -0.003062 -0.997680 -0.068010
vn 0.000439 -0.999999 -0.001601
vn 0.010796 -0.992767 -0.119575
vn 0.104413 -0.983142 -0.150102
vn 0.107654 -0.993060 -0.047357
vn 0.620218 -0.732606 0.280390
vn 0.732770 -0.680204 -0.019273
vn 0.232440 -0.624788 0.745394
vn 0.001320 -0.504642 0.863328
vn -0.173530 -0.492158 0.853034
vn -0.335689 -0.543227 0.769557
vn -0.537889 -0.646095 0.541513
vn -0.635743 -0.717394 0.284915
vn 0.913593 0.006182 0.406584
vn 0.999491 0.005614 -0.031396
vn 0.283631 0.004473 0.958923
vn 0.001883 0.003391 0.999992
vn -0.197941 0.003380 0.980208
vn -0.384969 0.003721 0.922922
vn -0.690660 0.004749 0.723164
vn -0.912036 0.005868 0.410068
s 1
g CG:CG:polySurface54
usemtl CG:CG:lambert5SG
f 9/1/1 10/2/2 12/3/3
f 12/3/3 10/2/2 11/4/4
s 2
f 13/5/5 17/6/6 16/7/7
f 16/7/7 17/6/6 15/8/8
s 3
f 7/9/9 8/10/10 1/11/11
f 1/11/11 8/10/10 2/12/12
s 4
f 10/13/13 15/14/14 11/15/15
f 11/15/15 15/14/14 14/16/16
s 5
f 16/17/17 9/18/18 13/19/19
f 13/19/19 9/18/18 12/20/20
s 3
f 1/11/11 2/12/12 9/21/21
f 9/21/21 2/12/12 10/22/22
s 6
f 4/23/23 3/24/24 11/25/25
f 11/25/25 3/24/24 12/26/26
f 5/27/27 6/28/28 13/29/29
f 13/29/29 6/28/28 14/30/30
s 3
f 8/10/10 7/9/9 15/31/31
f 15/31/31 7/9/9 16/32/32
f 2/12/12 8/10/10 10/22/22
f 10/22/22 8/10/10 15/31/31
s 6
f 6/28/28 4/23/23 14/30/30
f 14/30/30 4/23/23 11/25/25
s 3
f 7/9/9 1/11/11 16/32/32
f 16/32/32 1/11/11 9/21/21
s 6
f 3/24/24 5/27/27 12/26/26
f 12/26/26 5/27/27 13/29/29
s 2
f 13/5/5 14/33/33 17/6/6
f 15/8/8 17/6/6 14/33/33
s 8
f 18/34/34 19/35/35 26/36/36
f 26/36/36 19/35/35 27/37/37
f 19/35/35 20/38/38 27/37/37
f 27/37/37 20/38/38 28/39/39
f 21/40/40 29/41/41 20/38/38
f 20/38/38 29/41/41 28/39/39
f 21/40/40 22/42/42 29/41/41
f 29/41/41 22/42/42 30/43/43
f 22/42/42 23/44/44 30/43/43
f 30/43/43 23/44/44 31/45/45
f 23/44/44 24/46/46 31/45/45
f 31/45/45 24/46/46 32/47/47
f 24/46/46 25/48/48 32/47/47
f 32/47/47 25/48/48 33/49/49
f 26/36/36 27/37/37 34/50/50
f 34/50/50 27/37/37 35/51/51
f 27/37/37 28/39/39 35/51/51
f 35/51/51 28/39/39 36/52/52
f 29/41/41 37/53/53 28/39/39
f 28/39/39 37/53/53 36/52/52
f 29/41/41 30/43/43 37/53/53
f 37/53/53 30/43/43 38/54/54
f 30/43/43 31/45/45 38/54/54
f 38/54/54 31/45/45 39/55/55
f 31/45/45 32/47/47 39/55/55
f 39/55/55 32/47/47 40/56/56
f 32/47/47 33/49/49 40/56/56
f 40/56/56 33/49/49 41/57/57
f 34/58/50 35/59/51 42/60/58
f 42/60/58 35/59/51 43/61/59
f 35/59/51 36/62/52 43/61/59
f 43/61/59 36/62/52 44/63/60
f 37/64/53 45/65/61 36/66/52
f 36/66/52 45/65/61 44/67/60
f 37/64/53 38/68/54 45/65/61
f 45/65/61 38/68/54 46/69/62
f 38/68/54 39/70/55 46/69/62
f 46/69/62 39/70/55 47/71/63
f 39/70/55 40/72/56 47/71/63
f 47/71/63 40/72/56 48/73/64
f 40/74/56 41/75/57 48/76/64
f 48/76/64 41/75/57 49/77/65
f 43/61/59 51/78/66 42/60/58
f 42/60/58 51/78/66 50/79/67
f 44/63/60 52/80/68 43/61/59
f 43/61/59 52/80/68 51/78/66
f 44/67/60 45/65/61 52/81/68
f 52/81/68 45/65/61 53/82/69
f 46/69/62 54/83/70 45/65/61
f 45/65/61 54/83/70 53/82/69
f 47/71/63 55/84/71 46/69/62
f 46/69/62 55/84/71 54/83/70
f 48/73/64 56/85/72 47/71/63
f 47/71/63 56/85/72 55/84/71
f 49/77/65 57/86/73 48/76/64
f 48/76/64 57/86/73 56/87/72
f 51/88/66 59/89/74 50/90/67
f 50/90/67 59/89/74 58/91/75
f 52/92/68 60/93/76 51/88/66
f 51/88/66 60/93/76 59/89/74
f 52/92/68 53/94/69 60/93/76
f 60/93/76 53/94/69 61/95/77
f 54/96/70 62/97/78 53/94/69
f 53/94/69 62/97/78 61/95/77
f 55/98/71 63/99/79 54/96/70
f 54/96/70 63/99/79 62/97/78
f 56/100/72 64/101/80 55/98/71
f 55/98/71 64/101/80 63/99/79
f 57/102/73 65/103/81 56/100/72
f 56/100/72 65/103/81 64/101/80
f 59/89/74 67/104/82 58/91/75
f 58/91/75 67/104/82 66/105/83
f 60/93/76 68/106/84 59/89/74
f 59/89/74 68/106/84 67/104/82
f 60/93/76 61/95/77 68/106/84
f 68/106/84 61/95/77 69/107/85
f 62/97/78 70/108/86 61/95/77
f 61/95/77 70/108/86 69/107/85
f 63/99/79 71/109/87 62/97/78
f 62/97/78 71/109/87 70/108/86
f 64/101/80 72/110/88 63/99/79
f 63/99/79 72/110/88 71/109/87
f 65/103/81 73/111/89 64/101/80
f 64/101/80 73/111/89 72/110/88
f 67/112/82 75/113/90 66/114/83
f 66/114/83 75/113/90 74/115/91
f 68/116/84 76/117/92 67/112/82
f 67/112/82 76/117/92 75/113/90
f 68/118/84 69/119/85 76/120/92
f 76/120/92 69/119/85 77/121/93
f 70/122/86 78/123/94 69/119/85
f 69/119/85 78/123/94 77/121/93
f 71/124/87 79/125/95 70/122/86
f 70/122/86 79/125/95 78/123/94
f 72/126/88 80/127/96 71/124/87
f 71/124/87 80/127/96 79/125/95
f 73/128/89 81/129/97 72/130/88
f 72/130/88 81/129/97 80/131/96
f 74/115/91 75/113/90 18/132/34
f 18/132/34 75/113/90 19/133/35
f 75/113/90 76/117/92 19/133/35
f 19/133/35 76/117/92 20/134/38
f 77/121/93 21/135/40 76/120/92
f 76/120/92 21/135/40 20/136/38
f 77/121/93 78/123/94 21/135/40
f 21/135/40 78/123/94 22/137/42
f 78/123/94 79/125/95 22/137/42
f 22/137/42 79/125/95 23/138/44
f 79/125/95 80/127/96 23/138/44
f 23/138/44 80/127/96 24/139/46
f 80/131/96 81/129/97 24/140/46
f 24/140/46 81/129/97 25/141/48
