# This file uses centimeters as units for non-parametric coordinates.

mtllib diban.mtl
g default
v -4.021202 -1.843182 3.867772
v -2.330941 -1.843182 3.867772
v 2.037412 -1.843182 3.867772
v -4.021202 -1.843182 1.393019
v 2.037412 -1.843182 1.393019
v -4.021202 -1.843182 -3.868029
v -2.330941 -1.843182 -3.868029
v 2.037412 -1.843182 -3.868029
v -4.021202 -1.730799 3.867772
v -2.330941 -1.730799 3.867772
v -4.021202 -1.730799 1.393019
v 2.037412 -1.730799 3.867772
v 2.037412 -1.730799 1.393019
v -2.330941 -1.730799 -3.868029
v -4.021202 -1.730799 -3.868029
v 2.037412 -1.730799 -3.868029
v 0.694877 -1.730799 2.153589
v 0.099207 -1.730799 1.393019
v -2.822620 -1.730799 -2.337648
v -0.082969 -1.730799 -1.160673
v -0.991894 -1.730799 -0.000128
v -2.082995 -1.730799 1.393019
v -3.118321 -1.730799 2.714950
v -4.021202 -1.730799 1.393019
v -4.021202 -1.730799 -3.868029
v -2.822620 -1.730799 -2.337648
v -4.021202 -1.730799 3.867772
v -2.330941 -1.730799 3.867772
v -3.118321 -1.730799 2.714950
v 2.037412 -1.730799 3.867772
v 0.694877 -1.730799 2.153589
v 2.037412 -1.730799 -3.868029
v -0.082969 -1.730799 -1.160673
v 2.037412 -1.730799 1.393019
v 0.099207 -1.730799 1.393019
v -0.991894 -1.730799 -0.000128
v -2.082995 -1.730799 1.393019
v 2.037412 -1.843182 1.393019
v 2.037412 -1.843182 -3.868029
v -2.330941 -1.843182 -3.868029
v -2.330941 -1.843182 3.867772
v 2.037412 -1.843182 3.867772
v -4.021202 -1.843182 -3.868029
v -4.021202 -1.843182 1.393019
v -4.021202 -1.843182 3.867772
v -2.330941 -1.730799 -3.868029
vt 0.352412 0.453899
vt 0.191487 0.924838
vt 0.131530 0.186668
vt 0.131530 0.060965
vt 0.378346 0.550547
vt 0.861271 0.550547
vt 0.861271 0.670286
vt 0.861271 0.924838
vt 0.343135 0.962458
vt 0.926814 0.962458
vt 0.926814 0.654798
vt 0.926814 0.510077
vt 0.343135 0.510077
vt 0.117290 0.510077
vt 0.117290 0.654798
vt 0.117290 0.962458
vt 0.378346 0.924838
vt 0.923264 0.453899
vt 0.923264 0.186668
vt 0.191487 0.670286
vt 0.131530 0.453899
vt 0.923264 0.060965
vt 0.352412 0.060965
vt 0.191487 0.550547
vt 0.747823 0.148036
vt 0.669981 0.186668
vt 0.288160 0.376165
vt 0.646175 0.316381
vt 0.527397 0.257432
vt 0.384813 0.186668
vt 0.249518 0.119522
vt 0.131530 0.453899
vt 0.131530 0.186668
vt 0.288160 0.376165
vt 0.131530 0.060965
vt 0.352412 0.060965
vt 0.249518 0.119522
vt 0.923264 0.060965
vt 0.747823 0.148036
vt 0.923264 0.453899
vt 0.646175 0.316381
vt 0.923264 0.186668
vt 0.669981 0.186668
vt 0.527397 0.257432
vt 0.384813 0.186668
vt 0.926814 0.962458
vt 0.926814 0.654798
vt 0.343135 0.962458
vt 0.926814 0.510077
vt 0.343135 0.510077
vt 0.117290 0.962458
vt 0.117290 0.654798
vt 0.117290 0.510077
vt 0.191487 0.550547
vt 0.378346 0.550547
vt 0.861271 0.550547
vt 0.861271 0.670286
vt 0.861271 0.924838
vt 0.191487 0.924838
vt 0.191487 0.670286
vt 0.378346 0.924838
vt 0.352412 0.453899
vn 0.000000 1.000000 -0.000000
vn 0.000000 1.000000 -0.000000
vn 0.000000 1.000000 -0.000000
vn 0.000000 1.000000 0.000000
vn 0.000000 1.000000 0.000000
vn 0.000000 1.000000 0.000000
vn 0.000000 1.000000 0.000000
vn 0.000000 1.000000 0.000000
vn 0.000000 1.000000 -0.000000
vn 0.000000 1.000000 -0.000000
vn 0.000000 1.000000 0.000000
vn 0.000000 1.000000 0.000000
vn 0.000000 1.000000 0.000000
vn 0.000000 1.000000 -0.000000
vn 0.000000 -1.000000 0.000000
vn 0.000000 -1.000000 0.000000
vn 0.000000 -1.000000 0.000000
vn 0.000000 -1.000000 0.000000
vn 0.000000 -1.000000 0.000000
vn 0.000000 -1.000000 0.000000
vn 0.000000 -1.000000 0.000000
vn 0.000000 -1.000000 0.000000
vn 0.000000 0.000000 1.000000
vn 0.000000 0.000000 1.000000
vn 0.000000 0.000000 1.000000
vn 0.000000 0.000000 1.000000
vn 0.000000 0.000000 1.000000
vn 0.000000 0.000000 1.000000
vn 1.000000 0.000000 0.000000
vn 1.000000 0.000000 0.000000
vn 1.000000 0.000000 0.000000
vn 1.000000 0.000000 0.000000
vn 1.000000 0.000000 0.000000
vn 1.000000 0.000000 0.000000
vn -1.000000 0.000000 0.000000
vn -1.000000 0.000000 0.000000
vn -1.000000 0.000000 0.000000
vn -1.000000 0.000000 0.000000
vn -1.000000 0.000000 0.000000
vn -1.000000 0.000000 0.000000
vn 0.000000 0.000000 -1.000000
vn 0.000000 0.000000 -1.000000
vn 0.000000 0.000000 -1.000000
vn 0.000000 0.000000 -1.000000
vn 0.000000 0.000000 -1.000000
vn 0.000000 0.000000 -1.000000
vn 0.000000 1.000000 -0.000000
vn 0.000000 -1.000000 0.000000
vn 0.000000 -1.000000 0.000000
vn 0.000000 -1.000000 -0.000000
vn 0.000000 -1.000000 0.000000
vn 0.000000 -1.000000 -0.000000
vn 0.000000 -1.000000 0.000000
vn 0.000000 -1.000000 -0.000000
vn 0.000000 -1.000000 -0.000000
vn 0.000000 -1.000000 0.000000
vn 0.000000 -1.000000 -0.000000
vn 0.000000 -1.000000 0.000000
vn 0.000000 -1.000000 -0.000000
vn 0.000000 -1.000000 0.000000
vn 0.000000 -1.000000 -0.000000
vn 0.000000 1.000000 0.000000
vn 0.000000 1.000000 0.000000
vn 0.000000 1.000000 0.000000
vn 0.000000 1.000000 0.000000
vn 0.000000 1.000000 0.000000
vn 0.000000 1.000000 0.000000
vn 0.000000 1.000000 0.000000
vn 0.000000 1.000000 0.000000
vn 0.000000 0.000000 -1.000000
vn 0.000000 0.000000 -1.000000
vn 0.000000 0.000000 -1.000000
vn 0.000000 0.000000 -1.000000
vn 0.000000 0.000000 -1.000000
vn 0.000000 0.000000 -1.000000
vn -1.000000 0.000000 0.000000
vn -1.000000 0.000000 0.000000
vn -1.000000 0.000000 0.000000
vn -1.000000 0.000000 0.000000
vn -1.000000 0.000000 0.000000
vn -1.000000 0.000000 0.000000
vn 1.000000 0.000000 0.000000
vn 1.000000 0.000000 0.000000
vn 1.000000 0.000000 0.000000
vn 1.000000 0.000000 0.000000
vn 1.000000 0.000000 0.000000
vn 1.000000 0.000000 0.000000
vn 0.000000 0.000000 1.000000
vn 0.000000 0.000000 1.000000
vn 0.000000 0.000000 1.000000
vn 0.000000 0.000000 1.000000
vn 0.000000 0.000000 1.000000
vn 0.000000 0.000000 1.000000
vn 0.000000 -1.000000 0.000000
s 1
g CG:pPlane1 CG:CG:group1
usemtl CG:lambert13SG
f 25/21/1 24/3/2 26/27/3
f 27/4/4 28/23/5 29/31/6
f 30/22/7 31/25/8 28/23/5
f 32/18/9 33/28/10 34/19/11
f 35/26/12 36/29/13 37/30/14
f 31/25/8 35/26/12 28/23/5
f 35/26/12 37/30/14 28/23/5
f 37/30/14 29/31/6 28/23/5
s 6
f 39/10/15 38/11/16 40/9/17
f 42/12/18 41/13/19 38/11/16
f 38/11/16 41/13/19 40/9/17
f 40/9/17 41/13/19 43/16/20
f 43/16/20 41/13/19 44/15/21
f 41/13/19 45/14/22 44/15/21
s 7
f 27/24/23 45/14/24 28/5/25
f 45/14/24 41/13/26 28/5/25
f 28/5/25 41/13/26 30/6/27
f 41/13/26 42/12/28 30/6/27
s 8
f 30/6/29 42/12/30 34/7/31
f 42/12/30 38/11/32 34/7/31
f 34/7/31 38/11/32 32/8/33
f 38/11/32 39/10/34 32/8/33
s 9
f 25/2/35 43/16/36 24/20/37
f 43/16/36 44/15/38 24/20/37
f 24/20/37 44/15/38 27/24/39
f 44/15/38 45/14/40 27/24/39
s 10
f 32/8/41 39/10/42 46/17/43
f 39/10/42 40/9/44 46/17/43
f 46/17/43 40/9/44 25/2/45
f 40/9/44 43/16/46 25/2/45
s 1
f 30/22/7 34/19/11 31/25/8
f 35/26/12 31/25/8 34/19/11
f 36/29/13 35/26/12 33/28/10
f 33/28/10 35/26/12 34/19/11
f 25/21/1 26/27/3 46/1/47
f 32/18/9 46/1/47 33/28/10
f 46/1/47 26/27/3 33/28/10
f 33/28/10 26/27/3 36/29/13
f 37/30/14 36/29/13 24/3/2
f 24/3/2 36/29/13 26/27/3
f 24/3/2 29/31/6 37/30/14
f 27/4/4 29/31/6 24/3/2
s 11
f 15/32/48 19/34/49 11/33/50
f 9/35/51 23/37/52 10/36/53
f 12/38/54 10/36/53 17/39/55
f 16/40/56 13/42/57 20/41/58
f 18/43/59 22/45/60 21/44/61
f 17/39/55 10/36/53 18/43/59
f 18/43/59 10/36/53 22/45/60
f 22/45/60 10/36/53 23/37/52
s 16
f 8/46/62 7/48/63 5/47/64
f 3/49/65 5/47/64 2/50/66
f 5/47/64 7/48/63 2/50/66
f 7/48/63 6/51/67 2/50/66
f 6/51/67 4/52/68 2/50/66
f 2/50/66 4/52/68 1/53/69
s 17
f 9/54/70 10/55/71 1/53/72
f 1/53/72 10/55/71 2/50/73
f 10/55/71 12/56/74 2/50/73
f 2/50/73 12/56/74 3/49/75
s 18
f 12/56/76 13/57/77 3/49/78
f 3/49/78 13/57/77 5/47/79
f 13/57/77 16/58/80 5/47/79
f 5/47/79 16/58/80 8/46/81
s 19
f 15/59/82 11/60/83 6/51/84
f 6/51/84 11/60/83 4/52/85
f 11/60/83 9/54/86 4/52/85
f 4/52/85 9/54/86 1/53/87
s 20
f 16/58/88 14/61/89 8/46/90
f 8/46/90 14/61/89 7/48/91
f 14/61/89 15/59/92 7/48/91
f 7/48/91 15/59/92 6/51/93
s 11
f 12/38/54 17/39/55 13/42/57
f 18/43/59 13/42/57 17/39/55
f 21/44/61 20/41/58 18/43/59
f 20/41/58 13/42/57 18/43/59
f 15/32/48 14/62/94 19/34/49
f 16/40/56 20/41/58 14/62/94
f 14/62/94 20/41/58 19/34/49
f 20/41/58 21/44/61 19/34/49
f 22/45/60 11/33/50 21/44/61
f 11/33/50 19/34/49 21/44/61
f 11/33/50 22/45/60 23/37/52
f 9/35/51 11/33/50 23/37/52
