# This file uses centimeters as units for non-parametric coordinates.

mtllib fengjinghua.mtl
g default
v -3.916734 1.250276 0.214047
v -3.911826 1.250276 -1.523902
v -3.916755 0.039440 0.214046
v -3.911846 0.039440 -1.523902
v -3.926211 1.250276 0.214020
v -3.921302 1.250276 -1.523929
v -3.921323 0.039441 -1.523929
v -3.926231 0.039441 0.214020
v -3.914290 0.644858 -0.654928
vt 0.130672 0.744208
vt 0.869328 0.744208
vt 0.869328 0.255792
vt 0.130672 0.255792
vt 0.130672 0.744208
vt 0.130672 0.255792
vt 0.869328 0.255792
vt 0.869328 0.744208
vt 0.500000 0.500000
vn -0.999996 0.000017 -0.002824
vn -0.999996 0.000017 -0.002824
vn -0.999996 0.000017 -0.002824
vn -0.999996 0.000017 -0.002824
vn 0.999996 -0.000017 0.002824
vn 0.999996 -0.000017 0.002824
vn 0.999996 -0.000017 0.002824
vn 0.999996 -0.000017 0.002824
vn 0.000020 1.000000 0.000000
vn 0.000020 1.000000 0.000000
vn 0.000020 1.000000 0.000000
vn 0.000020 1.000000 0.000000
vn 0.002821 0.000000 -0.999996
vn 0.002824 0.000000 -0.999996
vn 0.002821 0.000000 -0.999996
vn 0.002824 0.000000 -0.999996
vn -0.000020 -1.000000 -0.000000
vn -0.000020 -1.000000 -0.000000
vn -0.000020 -1.000000 -0.000000
vn -0.000020 -1.000000 -0.000000
vn -0.002814 -0.000000 0.999996
vn -0.002824 -0.000000 0.999996
vn -0.002814 -0.000000 0.999996
vn -0.002824 -0.000000 0.999996
vn 0.999996 -0.000017 0.002824
s 1
g CG:pPlane7 CG:CG:group1
usemtl lambert2SG
f 5/1/1 6/2/2 8/4/3
f 8/4/3 6/2/2 7/3/4
s 2
f 1/5/5 9/9/6 2/8/7
f 2/8/7 9/9/6 4/7/8
s 3
f 1/5/9 2/8/10 5/1/11
f 5/1/11 2/8/10 6/2/12
s 4
f 2/8/13 4/7/14 6/2/15
f 6/2/15 4/7/14 7/3/16
s 5
f 4/7/17 3/6/18 7/3/19
f 7/3/19 3/6/18 8/4/20
s 6
f 3/6/21 1/5/22 8/4/23
f 8/4/23 1/5/22 5/1/24
s 2
f 1/5/5 3/6/25 9/9/6
f 4/7/8 9/9/6 3/6/25
