# This file uses centimeters as units for non-parametric coordinates.

mtllib shuoming.mtl
g default
v -0.073888 -5.625000 1.500000
v 0.073888 -5.625000 1.500000
v -0.073888 5.625000 1.500000
v 0.073888 5.625000 1.500000
v -0.073888 5.625000 -1.500000
v 0.073888 5.625000 -1.500000
v -0.073888 -5.625000 -1.500000
v 0.073888 -5.625000 -1.500000
vt 0.375000 0.000000
vt 0.625000 0.000000
vt 0.375000 0.250000
vt 0.625000 0.250000
vt 0.375000 0.500000
vt 0.625000 0.500000
vt 0.375000 0.750000
vt 0.625000 0.750000
vt 0.375000 1.000000
vt 0.625000 1.000000
vt -0.000000 0.001314
vt 1.000000 0.001314
vt 0.867241 0.094311
vt 0.219512 0.094311
vt 1.000000 0.998686
vt -0.000000 0.998686
vt 0.219512 0.178144
vt 0.867241 0.178144
vn 0.000000 0.000000 1.000000
vn 0.000000 0.000000 1.000000
vn 0.000000 0.000000 1.000000
vn 0.000000 0.000000 1.000000
vn 0.000000 1.000000 0.000000
vn 0.000000 1.000000 0.000000
vn 0.000000 1.000000 0.000000
vn 0.000000 1.000000 0.000000
vn 0.000000 0.000000 -1.000000
vn 0.000000 0.000000 -1.000000
vn 0.000000 0.000000 -1.000000
vn 0.000000 0.000000 -1.000000
vn 0.000000 -1.000000 0.000000
vn 0.000000 -1.000000 0.000000
vn 0.000000 -1.000000 0.000000
vn 0.000000 -1.000000 0.000000
vn 1.000000 0.000000 0.000000
vn 1.000000 0.000000 0.000000
vn 1.000000 0.000000 0.000000
vn 1.000000 0.000000 0.000000
vn -1.000000 0.000000 0.000000
vn -1.000000 0.000000 0.000000
vn -1.000000 0.000000 0.000000
vn -1.000000 0.000000 0.000000
s 1
g pCube1
usemtl lambert6SG
f 1/1/1 2/2/2 3/3/3
f 3/3/3 2/2/2 4/4/4
s 2
f 3/3/5 4/4/6 5/5/7
f 5/5/7 4/4/6 6/6/8
s 3
f 5/5/9 6/6/10 7/7/11
f 7/7/11 6/6/10 8/8/12
s 4
f 7/7/13 8/8/14 1/9/15
f 1/9/15 8/8/14 2/10/16
s 5
f 2/11/17 8/12/18 4/16/19
f 4/16/19 8/12/18 6/15/20
s 6
f 7/13/21 1/14/22 5/18/23
f 5/18/23 1/14/22 3/17/24
