# This file uses centimeters as units for non-parametric coordinates.

mtllib simianqiang.mtl
g default
v 1.894041 -1.876101 3.993604
v 2.031695 -1.876101 3.993604
v 2.031695 1.804255 4.002278
v 1.894041 1.804255 4.002278
v 1.894041 -1.876101 -4.137676
v 1.894041 -1.741325 -3.152551
v 1.894041 1.407139 -3.152551
v 1.894041 1.407139 -1.377687
v 1.894041 1.804255 -4.133359
v 1.894041 -1.741325 -1.376839
v 2.031695 -1.876101 -4.137676
v 2.031695 -1.741325 -3.152551
v 2.031695 -1.741325 -1.376839
v 2.031695 1.407139 -1.377687
v 2.031695 1.407139 -3.152551
v 2.031695 1.804255 -4.133359
v 2.017091 1.808927 -3.802902
v -4.021883 1.820814 -3.802902
v 2.009848 -1.866976 -3.802902
v -4.029120 -1.855085 -3.802902
v 2.009848 -1.866976 -4.001204
v -4.029120 -1.855085 -4.001204
v 2.017091 1.808927 -4.001204
v -4.021883 1.820814 -4.001204
v -4.115180 -1.876101 4.034130
v -3.977526 -1.876101 4.034130
v -4.115180 1.804255 4.034130
v -3.977526 1.804255 4.034130
v -4.115180 1.804255 -3.980287
v -3.977526 1.804255 -3.980287
v -4.115180 -1.876101 -3.980287
v -3.977526 -1.876101 -3.980287
v -4.115180 -0.035923 0.026921
v -4.046035 -1.867119 4.010233
v -3.157330 -0.154067 4.010233
v -3.157330 1.480392 4.010233
v -1.822512 1.480392 4.010233
v 2.040807 1.808790 4.010233
v -4.046035 1.808790 4.010233
v -1.822512 -0.154067 4.010233
v 2.040807 -1.867119 4.010233
v -4.046035 -1.867119 3.811932
v -4.046035 1.808790 3.811932
v 2.040807 -1.867119 3.811932
v 2.040807 1.808790 3.811932
v -3.157330 -0.154067 3.811932
v -1.822512 -0.154067 3.811932
v -1.822512 1.480392 3.811932
v -3.157330 1.480392 3.811932
vt 0.000000 1.000000
vt 0.001066 0.000000
vt 0.000000 1.000000
vt 0.001066 0.000000
vt 1.000000 0.000000
vt 0.878977 0.036620
vt 0.660829 0.036620
vt 0.999470 1.000000
vt 0.878977 0.892098
vt 0.660933 0.892098
vt 1.000000 0.000000
vt 0.660829 0.036620
vt 0.878977 0.036620
vt 0.999470 1.000000
vt 0.878977 0.892098
vt 0.660933 0.892098
vt 0.064189 0.537767
vt 0.962553 0.537767
vt 0.962076 0.889500
vt 0.063231 0.889500
vt 0.853714 0.550647
vt 0.657529 0.550647
vt 0.657622 0.851547
vt 0.853714 0.851547
vt 0.892514 0.077002
vt 0.230580 0.077002
vt 0.229874 0.430390
vt 0.892162 0.430390
vt 0.667765 0.089943
vt 0.812319 0.089943
vt 0.812319 0.392259
vt 0.667834 0.392259
vt 0.083384 0.527613
vt 0.031299 0.527613
vt 0.031299 0.871823
vt 0.083384 0.871823
vt 0.914817 0.131336
vt 0.915747 0.423796
vt 0.139478 0.132282
vt 0.140407 0.424742
vt 0.883896 0.863759
vt 0.883896 0.626711
vt 0.093747 0.863759
vt 0.093747 0.626711
vt 0.938403 0.879223
vt 0.937348 0.531716
vt 0.058404 0.880346
vt 0.057349 0.532840
vt 0.884844 0.626711
vt 0.884844 0.863759
vt 0.094694 0.626711
vt 0.094694 0.863759
vt 0.789721 0.513374
vt 0.758279 0.896631
vt 0.789721 0.896631
vt 0.473387 0.543330
vt 0.516157 0.543330
vt 0.473387 0.869304
vt 0.516157 0.869304
vt 0.013673 0.435200
vt 0.109322 0.395578
vt 0.974426 0.437038
vt 0.894150 0.397416
vt 0.786404 0.894904
vt 0.786404 0.894904
vt 0.786404 0.511183
vt 0.786404 0.511183
vt 0.974426 0.025993
vt 0.894150 0.062219
vt 0.013673 0.024156
vt 0.109322 0.060381
vt 0.184519 0.094097
vt 0.863354 0.095935
vt 0.184519 0.398831
vt 0.863354 0.400669
vt 0.963184 0.608181
vt 0.488400 0.746674
vt 0.963184 0.888842
vt 0.020969 0.887004
vt 0.020969 0.606343
vt 0.024155 0.570942
vt 0.157548 0.707016
vt 0.024155 0.862932
vt 0.157548 0.836846
vt 0.937777 0.862932
vt 0.357901 0.836846
vt 0.937777 0.570942
vt 0.357901 0.707016
vt 0.485422 0.981223
vt 0.485422 0.485855
vt 0.513092 0.951182
vt 0.512301 0.514314
vt 0.939682 0.512733
vt 0.980791 0.485855
vt 0.428783 0.882756
vt 0.428783 0.525630
vt 0.480049 0.882756
vt 0.480049 0.525630
vt 0.980791 0.981223
vt 0.948378 0.953554
vt 0.872995 0.077459
vt 0.201511 0.077459
vt 0.872995 0.426090
vt 0.446804 0.394944
vt 0.201511 0.426090
vt 0.299551 0.394944
vt 0.299551 0.239929
vt 0.446804 0.239929
vt 0.666380 0.936968
vt 0.654522 0.917204
vt 0.557748 0.936968
vt 0.578303 0.917995
vt 0.666380 0.716707
vt 0.653731 0.737261
vt 0.576721 0.734099
vt 0.557748 0.716707
vn 0.000000 -0.002357 0.999997
vn 0.000000 -0.002357 0.999997
vn 0.000000 -0.002357 0.999997
vn 0.000000 -0.002357 0.999997
vn -1.000000 0.000000 0.000000
vn -1.000000 -0.000000 0.000000
vn -1.000000 0.000000 0.000000
vn -1.000000 -0.000000 0.000000
vn -1.000000 0.000000 0.000000
vn -1.000000 0.000000 0.000000
vn -1.000000 -0.000000 0.000000
vn -1.000000 -0.000000 0.000000
vn 0.000000 -1.000000 0.000000
vn 0.000000 -1.000000 0.000000
vn 0.000000 -1.000000 0.000000
vn 0.000000 -1.000000 0.000000
vn 1.000000 0.000000 0.000000
vn 1.000000 0.000000 0.000000
vn 1.000000 0.000000 0.000000
vn 1.000000 0.000000 0.000000
vn 1.000000 -0.000000 0.000000
vn 1.000000 -0.000000 0.000000
vn 1.000000 -0.000000 0.000000
vn 1.000000 -0.000000 0.000000
vn 0.000000 1.000000 0.000000
vn 0.000000 1.000000 0.000000
vn 0.000000 1.000000 0.000000
vn 0.000000 1.000000 0.000000
vn 0.000000 0.001173 -0.999999
vn 0.000000 0.001173 -0.999999
vn 0.000000 0.001173 -0.999999
vn 0.000000 0.001173 -0.999999
vn 0.000000 -0.000269 -1.000000
vn 0.000000 -0.000269 -1.000000
vn 0.000000 -0.000269 -1.000000
vn 0.000000 -0.000269 -1.000000
vn 0.000000 1.000000 0.000000
vn 0.000000 1.000000 0.000000
vn 0.000000 1.000000 0.000000
vn 0.000000 1.000000 0.000000
vn 0.000000 -1.000000 0.000000
vn 0.000000 -1.000000 0.000000
vn 0.000000 -1.000000 0.000000
vn 0.000000 -1.000000 0.000000
vn 0.000000 0.000000 1.000000
vn 0.000000 0.000000 1.000000
vn 0.000000 0.000000 1.000000
vn 0.000000 0.000000 1.000000
vn 0.000000 0.000000 1.000000
vn 0.000000 0.000000 1.000000
vn 0.000000 0.000000 1.000000
vn 0.000000 0.000000 1.000000
vn -0.001969 -0.999998 0.000000
vn -0.001969 -0.999998 0.000000
vn -0.001969 -0.999998 0.000000
vn -0.001969 -0.999998 0.000000
vn -0.000000 0.000000 -1.000000
vn -0.000000 0.000000 -1.000000
vn -0.000000 0.000000 -1.000000
vn 0.000000 0.000000 -1.000000
vn 0.001968 0.999998 0.000000
vn 0.001968 0.999998 0.000000
vn 0.001968 0.999998 0.000000
vn 0.001968 0.999998 0.000000
vn -0.999998 0.001969 0.000000
vn -0.999998 0.001969 0.000000
vn -0.999998 0.001969 0.000000
vn -0.999998 0.001969 0.000000
vn 0.999998 -0.001970 0.000000
vn 0.999998 -0.001970 0.000000
vn 0.999998 -0.001970 0.000000
vn 0.999998 -0.001970 0.000000
vn 0.000000 0.000000 1.000000
vn 0.000000 0.000000 1.000000
vn 0.000000 0.000000 1.000000
vn 0.000000 0.000000 1.000000
vn 0.000000 1.000000 0.000000
vn 0.000000 1.000000 0.000000
vn 0.000000 1.000000 0.000000
vn 0.000000 1.000000 0.000000
vn 0.000000 0.000000 -1.000000
vn 0.000000 0.000000 -1.000000
vn 0.000000 0.000000 -1.000000
vn 0.000000 0.000000 -1.000000
vn 0.000000 -1.000000 0.000000
vn 0.000000 -1.000000 0.000000
vn 0.000000 -1.000000 0.000000
vn 0.000000 -1.000000 0.000000
vn 1.000000 0.000000 0.000000
vn 1.000000 0.000000 0.000000
vn 1.000000 0.000000 0.000000
vn 1.000000 0.000000 0.000000
vn -1.000000 -0.000000 0.000000
vn -1.000000 -0.000000 0.000000
vn -1.000000 0.000000 0.000000
vn -1.000000 0.000000 0.000000
vn -1.000000 -0.000000 0.000000
vn 0.000000 0.000000 1.000000
vn 0.000000 0.000000 1.000000
vn 0.000000 0.000000 1.000000
vn 0.000000 0.000000 1.000000
vn -0.000000 0.000000 1.000000
vn -0.000000 0.000000 1.000000
vn -0.000000 0.000000 1.000000
vn -0.000000 0.000000 1.000000
vn -1.000000 0.000000 0.000000
vn -1.000000 0.000000 0.000000
vn -1.000000 0.000000 0.000000
vn -1.000000 0.000000 0.000000
vn 0.000000 -1.000000 0.000000
vn 0.000000 -1.000000 0.000000
vn 0.000000 -1.000000 0.000000
vn 0.000000 -1.000000 0.000000
vn 1.000000 0.000000 0.000000
vn 1.000000 0.000000 0.000000
vn 1.000000 0.000000 0.000000
vn 1.000000 0.000000 0.000000
vn 0.000000 1.000000 0.000000
vn 0.000000 1.000000 0.000000
vn 0.000000 1.000000 0.000000
vn 0.000000 1.000000 0.000000
vn 0.000000 0.000000 -1.000000
vn 0.000000 0.000000 -1.000000
vn 0.000000 0.000000 -1.000000
vn 0.000000 0.000000 -1.000000
vn 0.000000 0.000000 -1.000000
vn 0.000000 0.000000 -1.000000
vn 0.000000 0.000000 -1.000000
vn 0.000000 0.000000 -1.000000
vn 0.000000 -1.000000 0.000000
vn 0.000000 -1.000000 0.000000
vn 0.000000 -1.000000 0.000000
vn 0.000000 -1.000000 0.000000
vn -1.000000 0.000000 0.000000
vn -1.000000 0.000000 0.000000
vn -1.000000 0.000000 0.000000
vn -1.000000 0.000000 0.000000
vn 1.000000 0.000000 0.000000
vn 1.000000 0.000000 0.000000
vn 1.000000 0.000000 0.000000
vn 1.000000 0.000000 0.000000
vn 0.000000 1.000000 0.000000
vn 0.000000 1.000000 0.000000
vn 0.000000 1.000000 0.000000
vn 0.000000 1.000000 0.000000
s off
g polySurface10
usemtl CG:lambert11SG
f 3/3/1 4/1/2 1/2/3 2/4/4
s 1
f 5/25/5 1/26/6 6/30/7
f 6/30/7 1/26/6 10/29/8
f 5/25/5 6/30/7 9/28/9
f 6/30/7 7/31/10 9/28/9
f 9/28/9 7/31/10 4/27/11
f 7/31/10 8/32/12 4/27/11
f 4/27/11 8/32/12 1/26/6
f 8/32/12 10/29/8 1/26/6
s off
f 2/4/13 1/2/14 5/5/15 11/11/16
s 2
f 11/18/17 12/21/18 2/17/19
f 12/21/18 13/22/20 2/17/19
f 11/18/17 16/19/21 12/21/18
f 12/21/18 16/19/21 15/24/22
f 16/19/21 3/20/23 15/24/22
f 15/24/22 3/20/23 14/23/24
f 3/20/23 2/17/19 14/23/24
f 2/17/19 13/22/20 14/23/24
s off
f 16/14/25 9/8/26 4/1/27 3/3/28
f 11/33/29 5/34/30 9/35/31 16/36/32
f 14/16/33 13/12/34 10/7/35 8/10/36
f 13/12/37 12/13/38 6/6/39 10/7/40
f 15/15/41 14/16/42 8/10/43 7/9/44
f 12/13/45 15/15/46 7/9/47 6/6/48
s 3
usemtl CG:lambert8SG
f 19/37/49 17/38/50 20/39/51
f 20/39/51 17/38/50 18/40/52
s 4
f 21/41/53 19/42/54 22/43/55
f 22/43/55 19/42/54 20/44/56
s 5
f 23/45/57 21/46/58 24/47/59
f 24/47/59 21/46/58 22/48/60
s 6
f 17/49/61 23/50/62 18/51/63
f 18/51/63 23/50/62 24/52/64
s 7
f 20/44/65 18/51/66 22/43/67
f 22/53/67 18/54/66 24/55/68
s 8
f 21/41/69 23/50/70 19/42/71
f 19/42/71 23/50/70 17/49/72
s 9
usemtl CG:lambert12SG
f 25/56/73 26/57/74 27/58/75
f 27/58/75 26/57/74 28/59/76
s 10
f 27/60/77 28/61/78 29/62/79
f 29/62/79 28/61/78 30/63/80
s 11
f 29/64/81 30/65/82 31/66/83
f 31/66/83 30/65/82 32/67/84
s 12
f 31/68/85 32/69/86 25/70/87
f 25/70/87 32/69/86 26/71/88
s 13
f 26/72/89 32/73/90 28/74/91
f 28/74/91 32/73/90 30/75/92
s 14
f 31/76/93 33/77/94 29/78/95
f 29/78/95 33/77/94 27/79/96
f 31/76/93 25/80/97 33/77/94
f 27/79/96 33/77/94 25/80/97
s 15
usemtl CG:lambert10SG
f 34/81/98 35/82/99 39/83/100
f 35/82/99 36/84/101 39/83/100
f 39/83/100 36/84/101 38/85/102
f 36/84/101 37/86/103 38/85/102
f 34/81/98 41/87/104 35/82/99
f 35/82/99 41/87/104 40/88/105
f 41/87/104 38/85/102 40/88/105
f 37/86/103 40/88/105 38/85/102
s 16
f 43/89/106 42/90/107 39/91/108
f 39/91/108 42/90/107 34/92/109
s 17
f 34/92/110 42/90/111 41/93/112
f 41/93/112 42/90/111 44/94/113
s 18
f 38/95/114 41/96/115 45/97/116
f 45/97/116 41/96/115 44/98/117
s 19
f 43/89/118 39/91/119 45/99/120
f 45/99/120 39/91/119 38/100/121
s 20
f 44/101/122 42/102/123 45/103/124
f 45/103/124 48/104/125 43/105/126
f 48/104/125 49/106/127 43/105/126
f 43/105/126 49/106/127 42/102/123
f 49/106/127 46/107/128 42/102/123
f 48/104/125 45/103/124 47/108/129
f 45/103/124 42/102/123 47/108/129
f 42/102/123 46/107/128 47/108/129
s 22
f 48/109/130 37/110/131 49/111/132
f 49/111/132 37/110/131 36/112/133
s 23
f 47/113/134 40/114/135 48/109/136
f 48/109/136 40/114/135 37/110/137
s 24
f 35/115/138 46/116/139 36/112/140
f 36/112/140 46/116/139 49/111/141
s 25
f 40/114/142 47/113/143 35/115/144
f 35/115/144 47/113/143 46/116/145
