# This file uses centimeters as units for non-parametric coordinates.

mtllib tips.mtl
g default
v -3.972022 0.746867 0.910189
v -3.972686 0.262211 0.910189
v -3.972022 0.746867 0.425532
v -3.972686 0.262211 0.425532
v -3.963681 0.746856 0.910189
v -3.964346 0.262200 0.910189
v -3.964346 0.262200 0.425532
v -3.963681 0.746856 0.425532
v -3.964014 0.504528 0.667861
vt 0.240274 0.764685
vt 0.240274 0.235302
vt 0.759726 0.235302
vt 0.759726 0.764685
vt 0.240274 0.764698
vt 0.759726 0.764698
vt 0.759726 0.235315
vt 0.240274 0.235315
vt 0.500000 0.499994
vn 0.999999 -0.001374 0.000000
vn 0.999999 -0.001374 0.000000
vn 0.999999 -0.001374 0.000000
vn 0.999999 -0.001374 0.000000
vn -0.999999 0.001372 0.000000
vn -0.999999 0.001372 0.000000
vn -0.999999 0.001372 0.000000
vn -0.999999 0.001372 0.000000
vn 0.000000 -0.000000 1.000000
vn 0.000000 0.000000 1.000000
vn 0.000000 0.000000 1.000000
vn 0.000000 0.000000 1.000000
vn -0.001365 -0.999999 0.000000
vn -0.001365 -0.999999 0.000000
vn -0.001365 -0.999999 0.000000
vn -0.001365 -0.999999 0.000000
vn 0.000000 0.000000 -1.000000
vn -0.000000 -0.000000 -1.000000
vn -0.000000 -0.000000 -1.000000
vn -0.000000 -0.000000 -1.000000
vn 0.001372 0.999999 0.000000
vn 0.001372 0.999999 0.000000
vn 0.001372 0.999999 0.000000
vn 0.001372 0.999999 0.000000
vn 0.999999 -0.001374 0.000000
s 1
g CG:CG:pPlane1
usemtl CG:CG:lambert15SG
f 5/1/1 9/9/2 8/4/3
f 8/4/3 9/9/2 7/3/4
s 2
f 1/5/5 3/6/6 2/8/7
f 2/8/7 3/6/6 4/7/8
s 3
f 1/5/9 2/8/10 5/1/11
f 5/1/11 2/8/10 6/2/12
s 4
f 2/8/13 4/7/14 6/2/15
f 6/2/15 4/7/14 7/3/16
s 5
f 4/7/17 3/6/18 7/3/19
f 7/3/19 3/6/18 8/4/20
s 6
f 3/6/21 1/5/22 8/4/23
f 8/4/23 1/5/22 5/1/24
s 1
f 5/1/1 6/2/25 9/9/2
f 7/3/4 9/9/2 6/2/25
