# This file uses centimeters as units for non-parametric coordinates.

mtllib xiaoyuanka.mtl
g default
v 1.523663 0.090319 3.243238
v 1.522570 0.090319 3.241272
v 1.522170 0.090319 3.238587
v 1.525157 0.090319 3.243958
v 1.522169 0.094019 3.238588
v 1.522570 0.094019 3.241273
v 1.523663 0.094019 3.243238
v 1.525157 0.094019 3.243957
v 1.641271 0.090319 3.241272
v 1.640177 0.090319 3.243238
v 1.638684 0.090319 3.243958
v 1.641671 0.090319 3.238587
v 1.641671 0.094019 3.238587
v 1.638684 0.094019 3.243958
v 1.640177 0.094019 3.243238
v 1.641271 0.094019 3.241272
v 1.640177 0.090319 3.029848
v 1.641271 0.090319 3.031814
v 1.641671 0.090319 3.034499
v 1.638684 0.090319 3.029129
v 1.638684 0.094019 3.029129
v 1.641671 0.094019 3.034499
v 1.641271 0.094019 3.031814
v 1.640177 0.094019 3.029848
v 1.522570 0.090319 3.031814
v 1.523663 0.090319 3.029848
v 1.525157 0.090319 3.029129
v 1.522170 0.090319 3.034499
v 1.522170 0.094019 3.034499
v 1.525157 0.094019 3.029129
v 1.523663 0.094019 3.029848
v 1.522570 0.094019 3.031814
v 1.583375 0.094019 3.133789
v 1.582917 0.094019 3.134658
v 1.582386 0.094019 3.135661
v 1.581920 0.094019 3.136543
v 1.581454 0.094019 3.137425
v 1.580924 0.094019 3.138429
v 1.580465 0.094019 3.139297
vt 0.134558 0.536275
vt 0.183551 0.076111
vt 0.822035 0.076111
vt 0.880583 0.042421
vt 0.896140 0.546749
vt 0.838836 0.085295
vt 0.838836 0.434322
vt 0.900465 0.466327
vt 0.876614 0.955280
vt 0.822035 0.443506
vt 0.183551 0.443506
vt 0.125003 0.477195
vt 0.115032 0.944806
vt 0.166750 0.434322
vt 0.166750 0.085295
vt 0.105122 0.053290
vt 0.169001 0.080703
vt 0.107785 0.047855
vt 0.175151 0.077341
vt 0.115062 0.043877
vt 0.830435 0.077341
vt 0.890524 0.043877
vt 0.836585 0.080703
vt 0.897801 0.047855
vt 0.836585 0.438914
vt 0.897801 0.471761
vt 0.830435 0.442275
vt 0.890524 0.475739
vt 0.175151 0.442275
vt 0.115062 0.475739
vt 0.169001 0.438914
vt 0.107785 0.471761
vt 0.105122 0.466327
vt 0.117648 0.950043
vt 0.124795 0.953877
vt 0.134558 0.955280
vt 0.880583 0.477195
vt 0.886377 0.953877
vt 0.893524 0.950043
vt 0.896140 0.944806
vt 0.900465 0.053290
vt 0.893524 0.541512
vt 0.886377 0.537678
vt 0.876614 0.536275
vt 0.125003 0.042421
vt 0.124795 0.537678
vt 0.117648 0.541512
vt 0.115032 0.546749
vt 0.515098 0.751149
vt 0.512099 0.749455
vt 0.508633 0.747498
vt 0.505586 0.745778
vt 0.502539 0.744057
vt 0.499073 0.742100
vt 0.496074 0.740406
vn -0.006256 0.000028 0.999980
vn -0.006256 0.000027 0.999980
vn 0.006255 0.000001 0.999980
vn 0.006255 0.000000 0.999980
vn 0.999998 0.000000 0.001936
vn 0.999998 0.000000 0.001936
vn 0.999998 0.000000 -0.001936
vn 0.999998 0.000000 -0.001936
vn 0.006255 0.000000 -0.999980
vn 0.006255 0.000000 -0.999980
vn -0.006255 0.000000 -0.999980
vn -0.006255 0.000000 -0.999980
vn -0.999998 0.000000 -0.001936
vn -0.999998 -0.000000 -0.001936
vn -0.999998 -0.000016 0.001936
vn -0.999998 -0.000016 0.001936
vn -0.952103 -0.000007 0.305778
vn -0.952093 0.000017 0.305809
vn -0.720132 0.000018 0.693837
vn -0.720119 0.000027 0.693851
vn 0.720136 0.000000 0.693833
vn 0.720136 0.000000 0.693833
vn 0.952103 0.000000 0.305777
vn 0.952103 0.000000 0.305777
vn 0.952103 0.000000 -0.305777
vn 0.952103 0.000000 -0.305777
vn 0.720136 0.000000 -0.693833
vn 0.720136 0.000000 -0.693833
vn -0.720136 0.000000 -0.693833
vn -0.720136 0.000000 -0.693833
vn -0.952103 0.000000 -0.305777
vn -0.952103 0.000000 -0.305777
vn 0.000000 -1.000000 -0.000000
vn -0.000000 -1.000000 -0.000000
vn -0.000000 -1.000000 -0.000000
vn -0.000000 -1.000000 -0.000000
vn 0.000000 -1.000000 -0.000000
vn 0.000000 -1.000000 -0.000000
vn 0.000000 -1.000000 -0.000000
vn -0.000000 -1.000000 -0.000000
vn 0.000000 -1.000000 -0.000000
vn -0.000000 -1.000000 -0.000000
vn 0.000000 -1.000000 -0.000000
vn 0.000000 -1.000000 -0.000000
vn 0.000000 -1.000000 -0.000000
vn -0.000000 -1.000000 -0.000000
vn -0.000000 -1.000000 -0.000000
vn -0.000000 -1.000000 -0.000000
vn 0.000000 1.000000 -0.000000
vn 0.000000 1.000000 0.000000
vn 0.000000 1.000000 -0.000000
vn 0.000000 1.000000 -0.000000
vn 0.000000 1.000000 -0.000000
vn 0.000000 1.000000 -0.000000
vn 0.000000 1.000000 -0.000000
vn 0.000000 1.000000 -0.000000
vn 0.000000 1.000000 0.000000
vn 0.000000 1.000000 0.000000
vn 0.000000 1.000000 -0.000000
vn 0.000000 1.000000 -0.000000
vn 0.000000 1.000000 -0.000000
vn 0.000000 1.000000 -0.000000
vn 0.000000 1.000000 -0.000000
vn 0.000000 1.000000 -0.000000
vn 0.000000 1.000000 0.000000
vn 0.000000 1.000000 0.000000
vn 0.000000 1.000000 0.000000
vn 0.000000 1.000000 0.000000
vn 0.000000 1.000000 0.000000
vn 0.000000 1.000000 0.000000
vn 0.000000 1.000000 -0.000000
s 1
g pPlane1 CG:CG:group1
usemtl lambert3SG
f 8/45/1 4/2/2 14/4/3
f 14/4/3 4/2/2 11/3/4
f 13/41/5 12/6/6 22/8/7
f 22/8/7 12/6/6 19/7/8
f 21/37/9 20/10/10 30/12/11
f 30/12/11 20/10/10 27/11/12
f 29/33/13 28/14/14 5/16/15
f 5/16/15 28/14/14 3/15/16
f 3/15/16 2/17/17 5/16/15
f 5/16/15 2/17/17 6/18/18
f 2/17/17 1/19/19 6/18/18
f 6/18/18 1/19/19 7/20/20
f 1/19/19 4/2/2 7/20/20
f 7/20/20 4/2/2 8/45/1
f 11/3/4 10/21/21 14/4/3
f 14/4/3 10/21/21 15/22/22
f 10/21/21 9/23/23 15/22/22
f 15/22/22 9/23/23 16/24/24
f 9/23/23 12/6/6 16/24/24
f 16/24/24 12/6/6 13/41/5
f 19/7/8 18/25/25 22/8/7
f 22/8/7 18/25/25 23/26/26
f 18/25/25 17/27/27 23/26/26
f 23/26/26 17/27/27 24/28/28
f 17/27/27 20/10/10 24/28/28
f 24/28/28 20/10/10 21/37/9
f 27/11/12 26/29/29 30/12/11
f 30/12/11 26/29/29 31/30/30
f 26/29/29 25/31/31 31/30/30
f 31/30/30 25/31/31 32/32/32
f 25/31/31 28/14/14 32/32/32
f 32/32/32 28/14/14 29/33/13
s 5
f 25/31/33 26/29/34 28/14/35
f 26/29/34 27/11/36 28/14/35
f 27/11/36 20/10/37 28/14/35
f 28/14/35 20/10/37 3/15/38
f 20/10/37 17/27/39 3/15/38
f 17/27/39 18/25/40 3/15/38
f 18/25/40 19/7/41 3/15/38
f 3/15/38 19/7/41 2/17/42
f 2/17/42 19/7/41 1/19/43
f 1/19/43 19/7/41 4/2/44
f 9/23/45 10/21/46 12/6/47
f 10/21/46 11/3/48 12/6/47
f 12/6/47 11/3/48 19/7/41
f 19/7/41 11/3/48 4/2/44
s 7
f 6/47/49 7/46/50 5/48/51
f 7/46/50 8/1/52 5/48/51
f 5/48/51 8/1/52 29/13/53
f 8/1/52 14/44/54 39/55/55
f 38/54/56 39/55/55 14/44/54
f 37/53/57 38/54/56 14/44/54
f 36/52/58 37/53/57 14/44/54
f 15/43/59 35/51/60 14/44/54
f 14/44/54 35/51/60 36/52/58
f 15/43/59 16/42/61 35/51/60
f 35/51/60 16/42/61 34/50/62
f 16/42/61 13/5/63 34/50/62
f 34/50/62 13/5/63 33/49/64
f 23/39/65 24/38/66 22/40/67
f 24/38/66 21/9/68 22/40/67
f 22/40/67 21/9/68 13/5/63
f 13/5/63 21/9/68 33/49/64
f 33/49/64 21/9/68 30/36/69
f 34/50/62 33/49/64 30/36/69
f 35/51/60 34/50/62 30/36/69
f 36/52/58 35/51/60 30/36/69
f 31/35/70 37/53/57 30/36/69
f 30/36/69 37/53/57 36/52/58
f 38/54/56 37/53/57 32/34/71
f 32/34/71 37/53/57 31/35/70
f 39/55/55 38/54/56 29/13/53
f 29/13/53 38/54/56 32/34/71
f 8/1/52 39/55/55 29/13/53
